<svg xmlns="http://www.w3.org/2000/svg" xmlns:xlink="http://www.w3.org/1999/xlink" width="200" height="79" viewBox="0 0 200 79">
    <defs>
        <path id="a" d="M0 40.292V.126h59.203v40.166z"/>
        <path id="c" d="M6.598 7.9H.013V.25h6.585z"/>
        <path id="e" d="M0 78.584h199.969V.126H0z"/>
    </defs>
    <g fill="none" fill-rule="evenodd">
        <path fill="#0C0103" d="M76.896 2.82H95.74v5.056H83.298v8.96h11.395v5.046H83.298v9.707h12.541v5.055H76.896zM106.21 8.673h6.13V2.8h-6.13v5.873zm0 27.97h6.13V12.992h-6.13v23.653z"/>
        <g transform="translate(0 .29)">
            <path fill="#0C0103" d="M144.366 12.701v21.352c0 6.428-2.562 12.492-12.44 12.492a20.635 20.635 0 0 1-8.15-1.604l.512-5.237a17.593 17.593 0 0 0 6.854 2.068c6.773 0 7.094-5.095 7.094-9.182h-.09a8.416 8.416 0 0 1-7.326 3.764c-6.944 0-9.596-5.61-9.596-11.947 0-5.692 2.923-12.26 9.968-12.26a7.828 7.828 0 0 1 7.225 3.763h.09v-3.209h5.86zm-6.13 11.575c0-4.047-1.557-7.347-5.124-7.347-4.16 0-5.488 3.855-5.488 7.478 0 3.218 1.689 7.164 5.216 7.164 3.839 0 5.396-3.35 5.396-7.295zM154.436 2.51h6.13v13.41h.09a8.764 8.764 0 0 1 7.416-3.774c5.578 0 8 3.956 8 9.284v14.924h-6.13V23.72c0-2.886-.04-6.79-3.98-6.79-4.431 0-5.396 4.823-5.396 7.85v11.574h-6.13V2.51zM187.99 17.202h-4.532v-4.5h4.532V7.968L194.11 6v6.7h5.447v4.5h-5.447v11.02c0 2.018.553 3.905 2.884 3.905a5.477 5.477 0 0 0 2.794-.646l.18 4.874a16.246 16.246 0 0 1-4.531.545c-4.804 0-7.447-2.987-7.447-7.67V17.203z"/>
            <mask id="b" fill="#fff">
                <use xlink:href="#a"/>
            </mask>
            <path fill="#48A1E3" d="M42.468.128C35.528.261 29.42 4.756 27.203 11.36 20.36 5.381 9.987 6.105 4.033 12.977c-5.954 6.87-5.232 17.287 1.61 23.265 6.844 5.978 17.217 5.254 23.171-1.617a16.504 16.504 0 0 0 3.172-5.557c6.845 5.982 17.223 5.26 23.18-1.614 5.957-6.873 5.237-17.294-1.607-23.276A16.392 16.392 0 0 0 42.468.128M16.57 32.237c-4.642.086-8.476-3.623-8.562-8.285-.086-4.662 3.608-8.51 8.25-8.597 4.643-.086 8.476 3.623 8.562 8.285.092 4.656-3.594 8.505-8.231 8.596h-.02m26.36-7.174c-4.642.087-8.476-3.622-8.562-8.284-.086-4.662 3.608-8.511 8.25-8.598 4.643-.086 8.476 3.623 8.562 8.285.087 4.661-3.607 8.51-8.25 8.597" mask="url(#b)"/>
            <path fill="#323232" d="M31.513 74.127v4.271h-1.802v-4.27l-3.312-6.054h1.987l2.04 3.845c.133.24.2.386.319.626.119-.254.185-.387.33-.64l1.975-3.831h1.828l-3.365 6.053z"/>
            <g transform="translate(35.197 70.684)">
                <mask id="d" fill="#fff">
                    <use xlink:href="#c"/>
                </mask>
                <path fill="#323232" d="M1.723 4.069c0 1.69.503 2.621 1.576 2.621s1.59-.918 1.59-2.621c0-1.676-.503-2.608-1.576-2.608-1.074 0-1.59.932-1.59 2.608m4.875-.013C6.598 6.424 5.287 7.9 3.3 7.9 1.312 7.9.013 6.464.013 4.095.013 1.727 1.338.25 3.313.25c1.96 0 3.285 1.437 3.285 3.806" mask="url(#d)"/>
            </g>
            <path fill="#323232" d="M49.918 78.398H48.3v-1.263c-.516.877-1.39 1.45-2.358 1.45-1.18 0-2.107-.719-2.107-2.156v-5.335h1.71v4.856c0 .825.37 1.198 1.02 1.198.622 0 1.31-.532 1.682-1.251v-4.803h1.67v7.304zM56.145 72.504c-.874 0-1.603.573-2.067 1.85v4.044h-1.642v-7.304h1.563v1.797c.517-1.438 1.272-1.956 2.252-1.956l-.106 1.57zM64.056 77.054h1.908c1.364 0 2.04-.638 2.04-1.716 0-1.05-.835-1.676-2.266-1.676h-1.682v3.392zm0-4.736h1.563c1.405 0 2.094-.585 2.094-1.503 0-.919-.504-1.397-1.934-1.397h-1.723v2.9zm1.921-4.244c2.57 0 3.511.945 3.511 2.568 0 1.184-.795 2.035-2.04 2.249v.092c1.524.253 2.358 1.158 2.358 2.488 0 1.823-1.298 2.927-3.644 2.927h-3.855V68.074h3.67zM77.955 78.398H76.34v-1.263c-.517.877-1.391 1.45-2.358 1.45-1.18 0-2.107-.719-2.107-2.156v-5.335h1.71v4.856c0 .825.37 1.198 1.02 1.198.622 0 1.31-.532 1.682-1.251v-4.803h1.67v7.304zM84.144 73.25c-.186-.786-.65-1.171-1.299-1.171-.716 0-1.14.346-1.14.785 0 .571.239.81 1.3 1.09l.608.16c1.657.44 2.253 1.038 2.253 2.222 0 1.304-.967 2.248-2.942 2.248-1.536 0-2.57-.545-3.033-1.822l1.55-.546c.238.825.821 1.224 1.523 1.224.954 0 1.325-.412 1.325-.944 0-.6-.251-.76-1.404-1.091l-.61-.173c-1.576-.426-2.133-.998-2.133-2.222 0-1.171.954-2.076 2.73-2.076 1.523 0 2.45.679 2.848 1.863l-1.576.453z"/>
            <mask id="f" fill="#fff">
                <use xlink:href="#e"/>
            </mask>
            <path fill="#323232" d="M87.893 78.398h1.67v-7.303h-1.67v7.303zm-.066-8.608h1.802v-1.716h-1.802v1.716zM93.684 72.372c.583-.865 1.444-1.438 2.385-1.438 1.205 0 2.08.786 2.08 2.195v5.27h-1.71v-4.804c0-.837-.357-1.223-1.006-1.223-.583 0-1.246.478-1.696 1.237v4.79h-1.67v-7.305h1.617v1.278zM105.106 74.008c-.08-1.224-.597-1.915-1.59-1.915-1.007 0-1.59.744-1.67 1.915h3.26zm-3.286 1.104c.013 1.383.622 2.302 1.828 2.302.755 0 1.285-.426 1.537-1.384l1.51.44c-.45 1.396-1.444 2.114-3.06 2.114-2.173 0-3.445-1.397-3.445-3.791 0-2.382 1.338-3.859 3.3-3.859 1.854 0 3.245 1.357 3.245 3.832v.346h-4.915zM112.46 73.25c-.186-.786-.65-1.171-1.299-1.171-.715 0-1.14.346-1.14.785 0 .571.239.81 1.299 1.09l.61.16c1.656.44 2.252 1.038 2.252 2.222 0 1.304-.967 2.248-2.941 2.248-1.537 0-2.57-.545-3.034-1.822l1.55-.546c.238.825.821 1.224 1.523 1.224.954 0 1.325-.412 1.325-.944 0-.6-.251-.76-1.404-1.091l-.61-.173c-1.576-.426-2.133-.998-2.133-2.222 0-1.171.954-2.076 2.73-2.076 1.523 0 2.45.679 2.848 1.863l-1.576.453zM119.893 73.25c-.186-.786-.65-1.171-1.299-1.171-.715 0-1.14.346-1.14.785 0 .571.24.81 1.3 1.09l.609.16c1.656.44 2.253 1.038 2.253 2.222 0 1.304-.968 2.248-2.942 2.248-1.537 0-2.57-.545-3.034-1.822l1.55-.546c.238.825.822 1.224 1.524 1.224.954 0 1.325-.412 1.325-.944 0-.6-.252-.76-1.405-1.091l-.61-.173c-1.576-.426-2.132-.998-2.132-2.222 0-1.171.954-2.076 2.729-2.076 1.524 0 2.451.679 2.849 1.863l-1.577.453zM135.846 78.398h-2.186l-2.49-5.321a66.515 66.515 0 0 1-1.472-3.406h-.185c.066 1.223.093 2.447.093 3.725v5.002h-1.644V68.074h2.69l2.133 4.577c.583 1.29.98 2.341 1.365 3.539h.186a56.927 56.927 0 0 1-.133-3.778v-4.338h1.643v10.324zM143.002 74.008c-.08-1.224-.597-1.915-1.59-1.915-1.008 0-1.59.744-1.67 1.915h3.26zm-3.287 1.104c.014 1.383.623 2.302 1.829 2.302.755 0 1.285-.426 1.537-1.384l1.51.44c-.45 1.396-1.444 2.114-3.06 2.114-2.173 0-3.445-1.397-3.445-3.791 0-2.382 1.338-3.859 3.299-3.859 1.855 0 3.246 1.357 3.246 3.832v.346h-4.916zM148.673 71.094h1.63v1.224h-1.63v4.004c0 .732.291 1.052.9 1.052.28 0 .544-.014.849-.08l-.067 1.198a8.71 8.71 0 0 1-1.298.079c-1.378 0-2.027-.598-2.027-1.942v-4.311h-1.087v-1.224h1.087v-2.009l1.643-.373v2.382zM159.816 78.398h-1.935l-.728-3.272c-.173-.825-.331-1.69-.517-2.648h-.159a68.242 68.242 0 0 1-.53 2.66l-.768 3.26h-1.935l-1.948-7.304h1.71l.689 3.207c.198.918.37 1.875.543 2.686h.146c.185-.824.357-1.809.556-2.66l.716-3.233h1.96l.69 3.233c.198.905.384 1.823.516 2.66h.16c.185-.877.33-1.742.542-2.673l.703-3.22h1.59l-2.001 7.304zM164.812 74.753c0 1.69.504 2.621 1.577 2.621s1.59-.918 1.59-2.621c0-1.676-.504-2.608-1.577-2.608s-1.59.932-1.59 2.608m4.876-.013c0 2.368-1.312 3.844-3.3 3.844-1.987 0-3.285-1.436-3.285-3.805 0-2.368 1.325-3.845 3.3-3.845 1.96 0 3.285 1.438 3.285 3.806M175.478 72.504c-.874 0-1.603.573-2.067 1.85v4.044h-1.643v-7.304h1.564v1.797c.516-1.438 1.272-1.956 2.252-1.956l-.106 1.57zM181.044 73.821l2.556 4.577h-1.828l-1.802-3.445-.994 1.104v2.341h-1.642v-10.51h1.642v6.4l2.624-3.194h1.868z" mask="url(#f)"/>
        </g>
    </g>
</svg>
